<?xml version="1.0" encoding="UTF-8" standalone="no" ?>
<svg version="1.1" id="Шар_1" xmlns="http://www.w3.org/2000/svg" xmlns:xlink="http://www.w3.org/1999/xlink" x="0px" y="0px"
     width="30" height="30" viewBox="0.1 -0.04 21.34 21.24" style="enable-background:new 0 0 21.5 21.3;" xml:space="preserve">
<style type="text/css">
	.st0{fill:#FFFFFF;}
</style>
    <polygon class="st0" points="5.8,19.7 0.9,20.5 1.7,15.6 17,0.3 21.1,4.4 "/>
    <path d="M21.3,4l-3.9-3.9c-0.2-0.2-0.6-0.2-0.8,0.1l0,0L1.3,15.4c-0.1,0.1-0.2,0.3-0.2,0.4l-1,4.9c0,0.3,0.2,0.5,0.5,0.5l4.9-1
	c0.1,0,0.3-0.1,0.4-0.2L21.2,4.8C21.5,4.6,21.5,4.2,21.3,4L21.3,4z M5.4,19.1L1.2,20l0.9-4.1L13.4,4.8L16.6,8L5.4,19.1z M17.4,7.2
	L14.2,4l2.7-2.7l3.2,3.2L17.4,7.2z"/>
</svg>